<svg xmlns="http://www.w3.org/2000/svg" viewBox="0 0 400 320" width="400" height="320">
  <!-- Sail -->
  <polygon points="200,30 200,190 130,190" fill="#3b82f6" opacity="0.9"/>

  <!-- Mast -->
  <line x1="200" y1="20" x2="200" y2="210" stroke="#1e3a5f" stroke-width="4" stroke-linecap="round"/>

  <!-- Crow's nest -->
  <rect x="185" y="20" width="30" height="16" rx="3" fill="#1e3a5f"/>
  <line x1="200" y1="20" x2="200" y2="12" stroke="#1e3a5f" stroke-width="3" stroke-linecap="round"/>

  <!-- Hull -->
  <path d="M 100,210 L 300,210 L 280,250 L 120,250 Z" fill="#1e3a5f"/>

  <!-- Hull accent stripe -->
  <path d="M 108,225 L 292,225 L 284,245 L 116,245 Z" fill="#2563eb" opacity="0.4"/>

  <!-- Bow detail -->
  <path d="M 280,210 L 310,210 L 280,250 Z" fill="#163050"/>

  <!-- Waves -->
  <path d="M 60,260 Q 90,248 120,260 Q 150,272 180,260 Q 210,248 240,260 Q 270,272 300,260 Q 330,248 360,260"
        fill="none" stroke="#3b82f6" stroke-width="3" opacity="0.6" stroke-linecap="round"/>
  <path d="M 50,275 Q 80,263 110,275 Q 140,287 170,275 Q 200,263 230,275 Q 260,287 290,275 Q 320,263 350,275"
        fill="none" stroke="#3b82f6" stroke-width="2.5" opacity="0.35" stroke-linecap="round"/>

  <!-- TrueCourse text -->
  <text x="200" y="310" text-anchor="middle" font-family="system-ui, -apple-system, sans-serif" font-size="28" font-weight="700" fill="#1e3a5f" letter-spacing="3">TRUECOURSE</text>
</svg>
